INFO:-

Format                           : Matroska
File size                        : 155 MiB
Duration                         : 4mn 3s
Overall bit rate                 : 5 323 Kbps
Movie name                       : White Horse 720p By Abhinav4u
Encoded date                     : UTC 2012-03-17 07:00:44
Writing application              : mkvmerge v4.5.0 ('Speed of Light') built on Feb  1 2011 02:10:32
Writing library                  : libebml v1.2.0 + libmatroska v1.1.0

Video
ID                               : 1
Format                           : MPEG-4 Visual
Codec ID                         : V_MPEG4/ISO/ASP
Duration                         : 4mn 3s
Bit rate                         : 4 897 Kbps
Width                            : 1 280 pixels
Height                           : 720 pixels
Display aspect ratio             : 16:9
Frame rate mode                  : Constant
Frame rate                       : 29.970 fps
Color space                      : YUV
Chroma subsampling               : 4:2:0
Bit depth                        : 8 bits
Scan type                        : Progressive
Compression mode                 : Lossy
Bits/(Pixel*Frame)               : 0.177
Stream size                      : 142 MiB (92%)
Title                            : ~Abhinav4u~
Writing library                  : Lavc51.54.0

Audio
ID                               : 2
Format                           : AC-3
Format/Info                      : Audio Coding 3
Mode extension                   : CM (complete main)
Muxing mode                      : Header stripping
Codec ID                         : A_AC3
Duration                         : 4mn 3s
Bit rate mode                    : Constant
Bit rate                         : 320 Kbps
Channel(s)                       : 6 channels
Channel positions                : Front: L C R, Side: L R, LFE
Sampling rate                    : 48.0 KHz
Bit depth                        : 16 bits
Compression mode                 : Lossy
Stream size                      : 9.30 MiB (6%)
Title                            : 6CH By Abhinav4u


 
http://i.minus.com/iMCMrD1mpVPyP.png 
http://i.minus.com/iZHnH9hGC3Ps2.png 
http://i.minus.com/ie17h7msnF38Z.png 
http://i.minus.com/iD4k8Jg2Lpikt.png 
http://i.minus.com/iR0Kz6ewVMsdK.png


Regards::Abhinav4u
Credits::Palladia HDTV
